
Cover:
 
http://ia.media-imdb.com/images/M/MV5BMjI3OTIwMjk0NV5BMl5BanBnXkFtZTcwNzYyOTAxOA@@._V1._SY317_.jpg

Release info:

General
Format                                   : Matroska
Format version                           : Version 2
File size                                : 698 MiB
Duration                                 : 1h 47mn
Overall bit rate                         : 908 Kbps


Video
ID                                       : 1
Format                                   : MPEG-4 Visual
Format profile                           : Advanced Simple@L5
Format settings, BVOP                    : Yes
Format settings, QPel                    : No
Format settings, GMC                     : No warppoints
Format settings, Matrix                  : Custom
Codec ID                                 : V_MS/VFW/FOURCC / XVID
Codec ID/Hint                            : XviD
Duration                                 : 1h 47mn
Bit rate                                 : 762 Kbps
Width                                    : 656 pixels
Height                                   : 368 pixels
Display aspect ratio                     : 16:9
Frame rate mode                          : Constant
Frame rate                               : 23.976 fps
Color space                              : YUV
Chroma subsampling                       : 4:2:0
Bit depth                                : 8 bits
Scan type                                : Progressive
Compression mode                         : Lossy
Bits/(Pixel*Frame)                       : 0.132
Stream size                              : 585 MiB (84%)
Writing library                          : XviD 1.2.1 (UTC 2008-12-04)
Language                                 : English
Default                                  : Yes
Forced                                   : No

Audio
ID                                       : 2
Format                                   : MPEG Audio
Format version                           : Version 1
Format profile                           : Layer 3
Mode                                     : Joint stereo
Mode extension                           : MS Stereo
Muxing mode                              : Header stripping
Codec ID                                 : A_MPEG/L3
Codec ID/Hint                            : MP3
Duration                                 : 1h 47mn
Bit rate mode                            : Constant
Bit rate                                 : 128 Kbps
Channel(s)                               : 2 channels
Sampling rate                            : 44.1 KHz
Compression mode                         : Lossy
Stream size                              : 98.3 MiB (14%)
Writing library                          : LAME3.98.2
Language                                 : English
Default                                  : Yes
Forced                                   : No



Source:
credit to original movie ripper ViP3R (Thanks)

IMDB Info:

A basketball star switches talent with a klutzy 16-year-old fan.

Director: John Whitesell
Writers: Eric Champnella, Jeff Farley
Stars: Kevin Durant, Taylor Gray and James Belushi

Genres: Family
 
http://www.imdb.com/title/tt2041488/

Screen Shot:
 
http://www.shotpix.com/images/29955208323407821403.png 
http://www.shotpix.com/images/76398975418168546422.png 
http://www.shotpix.com/images/15917160311762931750.png 
http://www.shotpix.com/images/62610119079934513231.png 
http://www.shotpix.com/images/19961505456804894341.png 
http://www.shotpix.com/images/58942682785666159755.png